<?xml version="1.0" encoding="UTF-8"?>
<svg width="298px" height="298px" viewBox="0 0 298 298" version="1.1" xmlns="http://www.w3.org/2000/svg" xmlns:xlink="http://www.w3.org/1999/xlink">
    <title>RepeatNotes</title>
    <g id="Original" stroke="none" stroke-width="1" fill="none" fill-rule="evenodd">
        <g id="RepeatNotes">
            <path d="M282,0 C290.836556,0 298,7.163444 298,16 L298,257.509 L257.508,298 L16,298 C7.163444,298 0,290.836556 0,282 L0,16 C0,7.163444 7.163444,0 16,0 L282,0 Z" id="Path" fill="#6366F1"></path>
            <path d="M101.135708,38.2746148 C101.876018,38.5560347 102.521149,39.0414371 102.996136,39.6744173 L107.790673,46.0645162 C120.388778,41.0770176 134.12378,38.3358062 148.5,38.3358062 C209.527465,38.3358062 259,87.7331686 259,148.667903 C259,209.602638 209.527465,264.692959 148.5,264.692959 C87.4725351,264.692959 38,209.602638 38,148.667903 C38,122.367251 48.2139527,114.998274 55.4824417,113.887697 C63.9053873,112.600727 71.1963632,120.990185 72.1314133,140.391721 L72.1898018,141.724434 C72.2074785,142.171935 72.2233712,142.622668 72.2374865,143.076541 L72.2745066,144.447492 C72.3062073,145.827682 72.3219697,147.235312 72.3219697,148.667903 C72.3219697,190.67594 106.428036,225.881377 148.5,225.881377 C190.571964,225.881377 224.67803,190.67594 224.67803,148.667903 C224.67803,106.659866 190.571964,72.6056242 148.5,72.6056242 C141.939039,72.6056242 135.571802,73.4337962 129.497426,74.9911546 L133.731375,80.6330171 C135.117483,82.4801823 134.741444,85.0995612 132.891468,86.4835636 C132.326406,86.906297 131.663424,87.1794316 130.96422,87.277549 L81.9912745,94.1497895 C79.7021248,94.4710197 77.5855976,92.8785255 77.2638786,90.5928542 C77.1656119,89.8947127 77.2458227,89.1830956 77.4970464,88.5242277 L95.7347534,40.6933874 C96.5572439,38.5362955 98.9753338,37.4533741 101.135708,38.2746148 Z" id="Path" stroke="#FFFFFF" stroke-width="2" fill="#FFFFFF" stroke-linejoin="round"></path>
            <path d="M257.51,298 L257.51,273.51 C257.51,264.673444 264.673444,257.51 273.51,257.51 L298,257.51 L257.51,298 Z" id="Path" fill="#A5B4FC"></path>
            <path d="M114,132 C124.49341,132 133,140.50659 133,151 C133,161.49341 124.49341,170 114,170 C103.50659,170 95,161.49341 95,151 C95,140.50659 103.50659,132 114,132 Z M182,132 C192.49341,132 201,140.50659 201,151 C201,161.49341 192.49341,170 182,170 C171.50659,170 163,161.49341 163,151 C163,140.50659 171.50659,132 182,132 Z" id="Eyes" fill="#FFFFFF"></path>
        </g>
    </g>
</svg>